:SAMPLES-PER-SECOND 24
:FULLY-SPECIFIED
:DEGREES
487
root  0.816115 48.0989 35.4093 -164.402 25.6113 -160.697
RightUpLeg  -39.3162 1.31969 -3.29128
RightLeg  53.0593 0.012055 -0.258092
RightFoot  12.0398 -0.572492 3.15034
RightToes  -2.08645e-008 3.77894e-005 6.81332e-007
Spine  13.4372 -6.46391 -17.3074
Spine1  -3.24563 -13.3201 33.0694
HEad  -27.0725 -43.2595 28.6732
LeftShoulder1  5.47838 -11.9221 -29.4867
LeftArm  23.847 -0.982735 -43.6433
LeftForeArm  167.289 -72.0881 -149.813
LeftHand  -0.0439256 -4.46125 0.813152
RightShoulder  3.75394 6.55964 31.4105
RightArm  22.3379 -30.2785 21.5384
RightForeArm  161.565 74.0956 144.955
RightHand  -0.642942 8.73892 -5.65351
LeftUpLeg  -1.75637 6.68362 10.0703
LeftLeg  4.91515 5.66101 -0.392451
LeftFoot  32.9733 7.08152 -17.7672
LeftToes  1.24767e-006 1.47042e-008 1.32732e-009
488
root  -0.22532 48.9915 34.96 -159.659 37.9984 -154.354
RightUpLeg  -46.9235 3.73183 -6.82149
RightLeg  71.4059 0.0656606 -1.1482
RightFoot  5.83179 0.265251 -1.48072
RightToes  -2.08645e-008 3.77894e-005 6.81332e-007
Spine  15.8082 -4.55156 -10.1205
Spine1  -2.13383 -11.1777 31.8576
HEad  -29.2215 -46.5148 29.5109
LeftShoulder1  5.25232 -11.912 -28.0081
LeftArm  25.3293 -2.76822 -41.5956
LeftForeArm  167.883 -69.2203 -154.142
LeftHand  -0.05346 -3.42819 0.9491
RightShoulder  3.71656 6.50055 31.2559
RightArm  22.6422 -24.8452 24.0308
RightForeArm  153.306 76.1069 138.1
RightHand  0.108221 10.1149 0.385663
LeftUpLeg  -0.965302 6.07665 10.2542
LeftLeg  4.74311 8.79275 0.605678
LeftFoot  30.8615 5.08293 -13.6691
LeftToes  1.24767e-006 1.47042e-008 1.32732e-009
489
root  -1.13349 49.3083 34.1691 -148.646 49.6963 -143.257
RightUpLeg  -54.671 3.72587 -10.5778
RightLeg  80.5623 -0.426328 -5.48145
RightFoot  -0.451482 0.313568 -3.31871
RightToes  -2.08645e-008 3.77894e-005 6.81332e-007
Spine  17.228 -2.79083 -3.47638
Spine1  -2.83632 -8.31703 30.5128
HEad  -26.5258 -47.9137 25.644
LeftShoulder1  4.99407 -11.5389 -27.1103
LeftArm  23.9707 -0.0711473 -35.1805
LeftForeArm  174.255 -65.505 -158.937
LeftHand  -0.027204 -3.64028 0.607323
RightShoulder  3.64402 6.48205 30.5905
RightArm  25.7687 -18.4913 23.7427
RightForeArm  144.526 77.5045 131.245
RightHand  0.0483127 9.96487 -0.0412604
LeftUpLeg  0.593206 6.46169 12.9195
LeftLeg  1.3425 12.4331 0.918285
LeftFoot  31.1101 4.58912 -12.2864
LeftToes  1.24767e-006 1.47042e-008 1.32732e-009
490
root  -1.65598 48.6529 33.1852 -134.799 55.883 -129.927
RightUpLeg  -60.2316 -1.58945 -15.1829
RightLeg  86.0529 0.0805883 -6.29081
RightFoot  -3.47037 0.306897 -4.79637
RightToes  -2.08645e-008 3.77894e-005 6.81332e-007
Spine  19.1952 -2.75632 2.79848
Spine1  -4.47758 -6.86081 29.5804
HEad  -24.428 -48.4793 22.4455
LeftShoulder1  4.60366 -10.8517 -25.9394
LeftArm  21.034 8.85306 -27.0961
LeftForeArm  178.462 -61.9917 -162.236
LeftHand  -0.0199307 -3.5429 0.510299
RightShoulder  3.44565 6.38136 28.9201
RightArm  29.0245 -12.7579 23.9245
RightForeArm  147.018 77.0395 133.645
RightHand  -0.29348 8.55239 -2.82194
LeftUpLeg  0.431547 7.60883 16.2818
LeftLeg  2.2741 3.50011 1.23751
LeftFoot  27.5136 4.68943 -13.7412
LeftToes  1.24767e-006 1.47042e-008 1.32732e-009
491
root  -1.92092 47.3155 32.061 -123.468 57.6102 -120.178
RightUpLeg  -61.5058 -10.453 -22.782
RightLeg  86.8316 0.0973389 -8.86765
RightFoot  -7.56156 0.109885 -4.9008
RightToes  -2.08645e-008 3.77894e-005 6.81332e-007
Spine  18.5632 -3.6519 9.42788
Spine1  -4.25967 -6.59099 27.5132
HEad  -25.8836 -50.3483 22.2489
LeftShoulder1  4.3289 -10.4802 -24.7801
LeftArm  19.1006 19.0903 -19.7533
LeftForeArm  174.887 -60.6537 -162.835
LeftHand  -0.117708 -3.18744 1.82942
RightShoulder  3.17667 6.05785 27.2372
RightArm  29.1542 -10.0092 24.8353
RightForeArm  155.483 74.8872 141.963
RightHand  -0.164581 8.56256 -1.75422
LeftUpLeg  -0.812962 6.87207 18.5894
LeftLeg  3.53671 0.292153 2.31383
LeftFoot  26.2475 3.8934 -11.9208
LeftToes  1.24767e-006 1.47042e-008 1.32732e-009
492
root  -1.83998 45.4747 31.045 -112.796 59.4022 -112.276
RightUpLeg  -58.6776 -17.5844 -34.2181
RightLeg  79.4166 -1.64887 -12.5781
RightFoot  -10.5365 -0.0301121 -6.32452
RightToes  -2.08645e-008 3.77894e-005 6.81332e-007
Spine  15.0305 -2.75812 14.5363
Spine1  -2.52963 -4.9333 22.7795
HEad  -30.0575 -53.6792 24.5139
LeftShoulder1  4.09251 -10.4062 -23.1641
LeftArm  18.7337 26.7014 -13.9303
LeftForeArm  171.135 -61.9703 -161.551
LeftHand  -0.13942 -3.19204 2.11956
RightShoulder  2.9685 5.63292 26.4791
RightArm  27.5736 -11.3736 24.4076
RightForeArm  164.318 70.962 151.116
RightHand  0.0300184 8.87518 -0.145958
LeftUpLeg  -1.69585 7.39599 20.1731
LeftLeg  4.643 0.71942 2.99543
LeftFoot  23.7269 2.59293 -8.74219
LeftToes  1.24767e-006 1.47042e-008 1.32732e-009
493
root  -1.65618 43.1204 30.2122 -101.344 59.0282 -99.8647
RightUpLeg  -50.5067 -16.4788 -43.7309
RightLeg  64.8662 -6.24704 -14.9205
RightFoot  -8.29597 0.196141 -9.26967
RightToes  -2.08645e-008 3.77894e-005 6.81332e-007
Spine  17.3953 -1.57593 20.6197
Spine1  -2.62218 -1.49212 17.8406
HEad  -34.7867 -55.8795 27.4284
LeftShoulder1  3.83894 -10.1683 -21.7384
LeftArm  18.2725 34.1118 -8.39135
LeftForeArm  170.455 -63.5496 -160.295
LeftHand  0.046196 -3.92996 -0.299017
RightShoulder  2.81804 5.28274 26.0442
RightArm  27.0141 -12.2316 24.5313
RightForeArm  169.554 67.6658 156.232
RightHand  0.140508 9.09643 0.727581
LeftUpLeg  0.368735 4.71282 23.9503
LeftLeg  11.5132 -0.434599 1.06613
LeftFoot  7.10295 0.760193 -4.91438
LeftToes  1.24767e-006 1.47042e-008 1.32732e-009
494
root  -1.5234 40.7227 29.4092 -94.3585 54.6843 -88.0594
RightUpLeg  -38.6414 -6.15671 -47.3802
RightLeg  46.3021 -14.802 -16.2651
RightFoot  -3.86255 0.669339 -10.5982
RightToes  -2.08645e-008 3.77894e-005 6.81332e-007
Spine  24.9664 -2.71816 26.7598
Spine1  -2.60912 0.686264 16.5657
HEad  -38.1343 -54.5901 28.1517
LeftShoulder1  3.84408 -9.77848 -22.6585
LeftArm  14.1856 42.0814 -6.04739
LeftForeArm  165.228 -67.4442 -155.957
LeftHand  0.112418 -4.38199 -1.0532
RightShoulder  2.8022 5.2031 26.1619
RightArm  26.9675 -7.90422 26.9024
RightForeArm  168.634 69.7144 153.587
RightHand  0.224727 10.0178 1.27742
LeftUpLeg  3.38753 -0.425377 26.6325
LeftLeg  22.4063 4.69433 2.45106
LeftFoot  -12.7928 0.094809 1.42471
LeftToes  1.24767e-006 1.47042e-008 1.32732e-009
495
root  -1.04648 39.1475 28.8085 -87.9258 50.9037 -78.8836
RightUpLeg  -29.3014 6.48556 -46.4811
RightLeg  28.6316 -26.0375 -14.6593
RightFoot  -2.4539 0.691528 -9.03153
RightToes  -2.08645e-008 3.77894e-005 6.81332e-007
Spine  28.0551 -3.51124 29.1407
Spine1  1.22857 0.989445 16.8628
HEad  -39.6396 -50.9985 27.0397
LeftShoulder1  4.25705 -9.84406 -25.7499
LeftArm  4.79636 46.0047 -11.8238
LeftForeArm  144.486 -76.1289 -135.661
LeftHand  -0.223247 -3.35057 3.21571
RightShoulder  3.14529 5.64567 28.4186
RightArm  25.081 -3.13194 28.2782
RightForeArm  164.351 75.2212 142.812
RightHand  0.561404 10.6486 3.65595
LeftUpLeg  4.76087 -4.67811 25.2026
LeftLeg  31.5005 17.4897 11.5153
LeftFoot  -21.3904 0.378555 2.97177
LeftToes  1.24767e-006 1.47042e-008 1.32732e-009
496
root  -0.221701 38.5573 28.452 -79.0217 48.6073 -69.7938
RightUpLeg  -23.1228 4.41299 -36.6011
RightLeg  13.9056 -23.8482 -11.6128
RightFoot  -4.64325 0.369629 -6.81527
RightToes  -2.08645e-008 3.77894e-005 6.81332e-007
Spine  27.0809 -3.03137 28.4992
Spine1  5.66692 0.793306 15.7469
HEad  -37.8651 -46.8697 25.3181
LeftShoulder1  4.94737 -10.5199 -29.2415
LeftArm  -3.40292 45.1898 -20.1265
LeftForeArm  91.6929 -80.2364 -83.1112
LeftHand  -0.554099 -2.3497 8.50528
RightShoulder  3.63984 6.19657 31.635
RightArm  21.1383 -4.51232 26.1384
RightForeArm  166.02 77.2637 137.163
RightHand  1.10574 10.9171 7.39276
LeftUpLeg  6.84604 -4.51531 23.3242
LeftLeg  35.1966 24.2124 17.5205
LeftFoot  -22.9525 0.22973 0.905158
LeftToes  1.24767e-006 1.47042e-008 1.32732e-009
